# xmcd
#
# Track frame offsets:
#	150
#	881
#	14045
#	29995
#	45914
#	58677
#	73094
#	91248
#	107705
#	119968
#	134126
#	154291
#	166485
#	182508
#	197773
#	209387
#	224216
#	241078
#	254372
#	269395
#	289497
#	311462
#	339248
#
# Disc length: 4703 seconds
#
# Revision: 1
# Processed by: cddbd v1.5.2PL0 Copyright (c) Steve Scherf et al.
# Submitted via: audiograbber 1.83.01
#
DISCID=67125d17
DTITLE=Country Hotdisc - Country Hotdisc 100a
DYEAR=2007
DGENRE=Country
TTITLE0=Intro  - Intro 
TTITLE1=Love Build On Love  - Rob Crosby
TTITLE2=These Are My People - Rodney Atkinds
TTITLE3=Enough Tequila  - Henry Smith
TTITLE4=I Wanna A Girl Like That  - Troy Cook Jr
TTITLE5=One Bad Day  - Kate Sansing
TTITLE6=Just This Side Of Heaven  - Hal Ketchum
TTITLE7=Little Sadie  - The Rosinators
TTITLE8=The Eyes Of A Child  - Audrey Kelly
TTITLE9=Pink Cadlliac  - Bill Durham
TTITLE10=Just A Pretty Picture  - Rick Monroe
TTITLE11=That Good That Bad  - Mark Chesnutt
TTITLE12=Life  - Jinder
TTITLE13=Lost In A Shufle  - Mike Bella
TTITLE14=Living On Dreams  - Nuala Mccormick
TTITLE15=Easier Said Than Don - Red Jenkins and Billy Yates
TTITLE16=Fore She Was My Mama  - Clay Walker 
TTITLE17=Kerry  - Rick Holdin
TTITLE18=Men Buy Drinks - Steve Holy
TTITLE19=Men Buy Drinks - David Allan Coe
TTITLE20=For Lovers Only Part 2  - David Allan Coe
TTITLE21=For Lovers Only Part 3  - David Allan Coe
TTITLE22=For Lovers Only Part 4  - David Allan Coe
EXTD=
EXTT0=
EXTT1=
EXTT2=
EXTT3=
EXTT4=
EXTT5=
EXTT6=
EXTT7=
EXTT8=
EXTT9=
EXTT10=
EXTT11=
EXTT12=
EXTT13=
EXTT14=
EXTT15=
EXTT16=
EXTT17=
EXTT18=
EXTT19=
EXTT20=
EXTT21=
EXTT22=
PLAYORDER=
